<svg width="50" height="162" viewBox="0 0 50 162" fill="none" xmlns="http://www.w3.org/2000/svg">
<rect width="50" height="162" rx="8" fill="#C8FFF5"/>
<path d="M14.036 144.544H36.5V150.016H14.036L14.036 144.544ZM36.724 132.451C36.724 134.093 36.4573 135.565 35.924 136.867C35.3907 138.168 34.6013 139.213 33.556 140.003C32.5107 140.771 31.252 141.176 29.78 141.219V135.395C30.612 135.309 31.252 135.021 31.7 134.531C32.1267 134.04 32.34 133.4 32.34 132.611C32.34 131.8 32.1587 131.16 31.796 130.691C31.412 130.221 30.8893 129.987 30.228 129.987C29.6733 129.987 29.2147 130.179 28.852 130.563C28.4893 130.925 28.1907 131.384 27.956 131.939C27.7213 132.472 27.4547 133.24 27.156 134.243C26.708 135.693 26.26 136.877 25.812 137.795C25.364 138.712 24.7027 139.501 23.828 140.163C22.9533 140.824 21.812 141.155 20.404 141.155C18.3133 141.155 16.6813 140.397 15.508 138.883C14.3133 137.368 13.716 135.395 13.716 132.963C13.716 130.488 14.3133 128.493 15.508 126.979C16.6813 125.464 18.324 124.653 20.436 124.547V130.467C19.7107 130.509 19.1453 130.776 18.74 131.267C18.3133 131.757 18.1 132.387 18.1 133.155C18.1 133.816 18.2813 134.349 18.644 134.755C18.9853 135.16 19.4867 135.363 20.148 135.363C20.8733 135.363 21.4387 135.021 21.844 134.339C22.2493 133.656 22.6867 132.589 23.156 131.139C23.6467 129.688 24.116 128.515 24.564 127.619C25.012 126.701 25.6627 125.912 26.516 125.251C27.3693 124.589 28.468 124.259 29.812 124.259C31.092 124.259 32.2547 124.589 33.3 125.251C34.3453 125.891 35.1773 126.829 35.796 128.067C36.4147 129.304 36.724 130.765 36.724 132.451ZM36.724 110.267C36.724 112.379 36.2333 114.32 35.252 116.091C34.2707 117.84 32.9053 119.238 31.156 120.283C29.3853 121.307 27.4013 121.819 25.204 121.819C23.0067 121.819 21.0333 121.307 19.284 120.283C17.5347 119.238 16.1693 117.84 15.188 116.091C14.2067 114.32 13.716 112.379 13.716 110.267C13.716 108.155 14.2067 106.224 15.188 104.475C16.1693 102.704 17.5347 101.318 19.284 100.315C21.0333 99.291 23.0067 98.779 25.204 98.779C27.4013 98.779 29.3853 99.291 31.156 100.315C32.9053 101.339 34.2707 102.726 35.252 104.475C36.2333 106.224 36.724 108.155 36.724 110.267ZM31.732 110.267C31.732 108.475 31.1347 107.046 29.94 105.979C28.7453 104.891 27.1667 104.347 25.204 104.347C23.22 104.347 21.6413 104.891 20.468 105.979C19.2733 107.046 18.676 108.475 18.676 110.267C18.676 112.08 19.2627 113.531 20.436 114.619C21.6093 115.686 23.1987 116.219 25.204 116.219C27.188 116.219 28.7773 115.686 29.972 114.619C31.1453 113.531 31.732 112.08 31.732 110.267ZM18.228 96.8548H13.14L13.14 87.9908H36.5V93.6868H18.228V96.8548ZM32.34 84.1195H27.924L13.46 74.0075L13.46 67.8955H27.604V65.2715H32.34V67.8955H36.5V73.3675H32.34L32.34 84.1195ZM19.476 72.9835L27.604 78.3595L27.604 72.9835H19.476ZM24.5 62.5913C20.8307 62.5913 17.94 61.8873 15.828 60.4793C13.716 59.0499 12.66 56.7566 12.66 53.5993C12.66 50.4419 13.716 48.1593 15.828 46.7513C17.94 45.3219 20.8307 44.6073 24.5 44.6073C28.212 44.6073 31.124 45.3219 33.236 46.7513C35.348 48.1593 36.404 50.4419 36.404 53.5993C36.404 56.7566 35.348 59.0499 33.236 60.4793C31.124 61.8873 28.212 62.5913 24.5 62.5913ZM24.5 49.9833C22.3453 49.9833 20.692 50.2179 19.54 50.6873C18.3667 51.1566 17.78 52.1273 17.78 53.5993C17.78 55.0713 18.3667 56.0419 19.54 56.5113C20.692 56.9806 22.3453 57.2153 24.5 57.2153C25.9507 57.2153 27.156 57.1299 28.116 56.9593C29.0547 56.7886 29.8227 56.4473 30.42 55.9353C30.996 55.4019 31.284 54.6233 31.284 53.5993C31.284 52.5753 30.996 51.8073 30.42 51.2953C29.8227 50.7619 29.0547 50.4099 28.116 50.2393C27.156 50.0686 25.9507 49.9833 24.5 49.9833ZM24.5 41.7163C20.8307 41.7163 17.94 41.0123 15.828 39.6043C13.716 38.1749 12.66 35.8816 12.66 32.7243C12.66 29.5669 13.716 27.2843 15.828 25.8763C17.94 24.4469 20.8307 23.7323 24.5 23.7323C28.212 23.7323 31.124 24.4469 33.236 25.8763C35.348 27.2843 36.404 29.5669 36.404 32.7243C36.404 35.8816 35.348 38.1749 33.236 39.6043C31.124 41.0123 28.212 41.7163 24.5 41.7163ZM24.5 29.1083C22.3453 29.1083 20.692 29.3429 19.54 29.8123C18.3667 30.2816 17.78 31.2523 17.78 32.7243C17.78 34.1963 18.3667 35.1669 19.54 35.6363C20.692 36.1056 22.3453 36.3403 24.5 36.3403C25.9507 36.3403 27.156 36.2549 28.116 36.0843C29.0547 35.9136 29.8227 35.5723 30.42 35.0603C30.996 34.5269 31.284 33.7483 31.284 32.7243C31.284 31.7003 30.996 30.9323 30.42 30.4203C29.8227 29.8869 29.0547 29.5349 28.116 29.3643C27.156 29.1936 25.9507 29.1083 24.5 29.1083ZM18.228 21.4173H13.14L13.14 12.5533H36.5V18.2493H18.228L18.228 21.4173Z" fill="#07C5B7"/>
</svg>
