<svg width="50" height="148" viewBox="0 0 50 148" fill="none" xmlns="http://www.w3.org/2000/svg">
<rect width="50" height="148" rx="8" fill="#C8FFF5"/>
<path d="M14.036 130.544H36.5V136.016H14.036L14.036 130.544ZM36.724 118.451C36.724 120.093 36.4573 121.565 35.924 122.867C35.3907 124.168 34.6013 125.213 33.556 126.003C32.5107 126.771 31.252 127.176 29.78 127.219V121.395C30.612 121.309 31.252 121.021 31.7 120.531C32.1267 120.04 32.34 119.4 32.34 118.611C32.34 117.8 32.1587 117.16 31.796 116.691C31.412 116.221 30.8893 115.987 30.228 115.987C29.6733 115.987 29.2147 116.179 28.852 116.563C28.4893 116.925 28.1907 117.384 27.956 117.939C27.7213 118.472 27.4547 119.24 27.156 120.243C26.708 121.693 26.26 122.877 25.812 123.795C25.364 124.712 24.7027 125.501 23.828 126.163C22.9533 126.824 21.812 127.155 20.404 127.155C18.3133 127.155 16.6813 126.397 15.508 124.883C14.3133 123.368 13.716 121.395 13.716 118.963C13.716 116.488 14.3133 114.493 15.508 112.979C16.6813 111.464 18.324 110.653 20.436 110.547V116.467C19.7107 116.509 19.1453 116.776 18.74 117.267C18.3133 117.757 18.1 118.387 18.1 119.155C18.1 119.816 18.2813 120.349 18.644 120.755C18.9853 121.16 19.4867 121.363 20.148 121.363C20.8733 121.363 21.4387 121.021 21.844 120.339C22.2493 119.656 22.6867 118.589 23.156 117.139C23.6467 115.688 24.116 114.515 24.564 113.619C25.012 112.701 25.6627 111.912 26.516 111.251C27.3693 110.589 28.468 110.259 29.812 110.259C31.092 110.259 32.2547 110.589 33.3 111.251C34.3453 111.891 35.1773 112.829 35.796 114.067C36.4147 115.304 36.724 116.765 36.724 118.451ZM36.724 96.267C36.724 98.379 36.2333 100.32 35.252 102.091C34.2707 103.84 32.9053 105.238 31.156 106.283C29.3853 107.307 27.4013 107.819 25.204 107.819C23.0067 107.819 21.0333 107.307 19.284 106.283C17.5347 105.238 16.1693 103.84 15.188 102.091C14.2067 100.32 13.716 98.379 13.716 96.267C13.716 94.155 14.2067 92.2243 15.188 90.475C16.1693 88.7043 17.5347 87.3177 19.284 86.315C21.0333 85.291 23.0067 84.779 25.204 84.779C27.4013 84.779 29.3853 85.291 31.156 86.315C32.9053 87.339 34.2707 88.7257 35.252 90.475C36.2333 92.2243 36.724 94.155 36.724 96.267ZM31.732 96.267C31.732 94.475 31.1347 93.0457 29.94 91.979C28.7453 90.891 27.1667 90.347 25.204 90.347C23.22 90.347 21.6413 90.891 20.468 91.979C19.2733 93.0457 18.676 94.475 18.676 96.267C18.676 98.0803 19.2627 99.531 20.436 100.619C21.6093 101.686 23.1987 102.219 25.204 102.219C27.188 102.219 28.7773 101.686 29.972 100.619C31.1453 99.531 31.732 98.0803 31.732 96.267ZM29.652 76.3908C31.3373 76.0708 32.18 75.0894 32.18 73.4468C32.18 72.3161 31.6787 71.5161 30.676 71.0468C29.6733 70.5774 28.0413 70.3428 25.78 70.3428C26.4413 70.8121 26.9533 71.4521 27.316 72.2628C27.6787 73.0734 27.86 73.9801 27.86 74.9828C27.86 76.3481 27.5827 77.5641 27.028 78.6308C26.452 79.6974 25.6093 80.5401 24.5 81.1588C23.3693 81.7561 22.004 82.0548 20.404 82.0548C18.8253 82.0548 17.4493 81.7348 16.276 81.0948C15.1027 80.4334 14.196 79.5054 13.556 78.3108C12.916 77.0948 12.596 75.6654 12.596 74.0228C12.596 70.8654 13.5773 68.6574 15.54 67.3988C17.5027 66.1401 20.3933 65.5108 24.212 65.5108C26.9853 65.5108 29.2787 65.7668 31.092 66.2788C32.884 66.7694 34.2493 67.6121 35.188 68.8068C36.1267 69.9801 36.596 71.5908 36.596 73.6388C36.596 75.2601 36.276 76.6468 35.636 77.7988C34.996 78.9294 34.1533 79.8041 33.108 80.4228C32.0627 81.0201 30.9107 81.3614 29.652 81.4468V76.3908ZM23.54 73.7348C23.54 72.8388 23.2733 72.1241 22.74 71.5908C22.1853 71.0574 21.4387 70.7908 20.5 70.7908C19.476 70.7908 18.6867 71.0681 18.132 71.6228C17.5773 72.1774 17.3 72.9241 17.3 73.8628C17.3 74.8014 17.588 75.5481 18.164 76.1028C18.7187 76.6361 19.4867 76.9028 20.468 76.9028C21.3853 76.9028 22.132 76.6361 22.708 76.1028C23.2627 75.5481 23.54 74.7588 23.54 73.7348ZM24.5 62.5913C20.8307 62.5913 17.94 61.8873 15.828 60.4793C13.716 59.0499 12.66 56.7566 12.66 53.5993C12.66 50.4419 13.716 48.1593 15.828 46.7513C17.94 45.3219 20.8307 44.6073 24.5 44.6073C28.212 44.6073 31.124 45.3219 33.236 46.7513C35.348 48.1593 36.404 50.4419 36.404 53.5993C36.404 56.7566 35.348 59.0499 33.236 60.4793C31.124 61.8873 28.212 62.5913 24.5 62.5913ZM24.5 49.9833C22.3453 49.9833 20.692 50.2179 19.54 50.6873C18.3667 51.1566 17.78 52.1273 17.78 53.5993C17.78 55.0713 18.3667 56.0419 19.54 56.5113C20.692 56.9806 22.3453 57.2153 24.5 57.2153C25.9507 57.2153 27.156 57.1299 28.116 56.9593C29.0547 56.7886 29.8227 56.4473 30.42 55.9353C30.996 55.4019 31.284 54.6233 31.284 53.5993C31.284 52.5753 30.996 51.8073 30.42 51.2953C29.8227 50.7619 29.0547 50.4099 28.116 50.2393C27.156 50.0686 25.9507 49.9833 24.5 49.9833ZM24.5 41.7163C20.8307 41.7163 17.94 41.0123 15.828 39.6043C13.716 38.1749 12.66 35.8816 12.66 32.7243C12.66 29.5669 13.716 27.2843 15.828 25.8763C17.94 24.4469 20.8307 23.7323 24.5 23.7323C28.212 23.7323 31.124 24.4469 33.236 25.8763C35.348 27.2843 36.404 29.5669 36.404 32.7243C36.404 35.8816 35.348 38.1749 33.236 39.6043C31.124 41.0123 28.212 41.7163 24.5 41.7163ZM24.5 29.1083C22.3453 29.1083 20.692 29.3429 19.54 29.8123C18.3667 30.2816 17.78 31.2523 17.78 32.7243C17.78 34.1963 18.3667 35.1669 19.54 35.6363C20.692 36.1056 22.3453 36.3403 24.5 36.3403C25.9507 36.3403 27.156 36.2549 28.116 36.0843C29.0547 35.9136 29.8227 35.5723 30.42 35.0603C30.996 34.5269 31.284 33.7483 31.284 32.7243C31.284 31.7003 30.996 30.9323 30.42 30.4203C29.8227 29.8869 29.0547 29.5349 28.116 29.3643C27.156 29.1936 25.9507 29.1083 24.5 29.1083ZM18.228 21.4173H13.14L13.14 12.5533H36.5V18.2493H18.228V21.4173Z" fill="#07C5B7"/>
</svg>
