<svg width="322" height="64" viewBox="0 0 322 64" fill="none" xmlns="http://www.w3.org/2000/svg">
<path d="M38.4016 53.4384C35.0325 54.7198 32.9674 54.666 29.3875 54.2453C25.8076 53.8247 22.3821 52.5463 19.4018 50.5188C16.4216 48.4913 13.9746 45.7745 12.2688 42.5992C10.5629 39.4239 9.64857 35.8838 9.60333 32.2795C9.55809 28.6753 10.3833 25.1133 12.0089 21.8962C13.6345 18.679 16.0125 15.9017 18.9409 13.8C21.8693 11.6984 25.2617 10.3344 28.8299 9.82405C32.3981 9.31367 35.2016 9.59836 38.0816 10.5584L35.2016 15.5291C33.2816 15.3584 32.2961 15.15 29.6459 15.5291C26.9957 15.9082 24.4762 16.9212 22.3012 18.4821C20.1262 20.0431 18.36 22.1059 17.1527 24.4953C15.9453 26.8847 15.3324 29.5302 15.366 32.2072C15.3996 34.8841 16.0787 37.5134 17.3457 39.8718C18.6126 42.2302 20.43 44.248 22.6435 45.7538C24.857 47.2597 27.4012 48.2092 30.06 48.5216C32.7189 48.834 34.2416 48.6384 36.4816 48.3184L38.4016 53.4384Z" fill="white"/>
<path d="M60.7992 31.9992C60.7992 47.905 47.905 60.7992 31.9992 60.7992C16.0934 60.7992 3.19922 47.905 3.19922 31.9992C3.19922 16.0934 16.0934 3.19922 31.9992 3.19922C47.905 3.19922 60.7992 16.0934 60.7992 31.9992ZM9.83945 31.9992C9.83945 44.2377 19.7607 54.159 31.9992 54.159C44.2377 54.159 54.159 44.2377 54.159 31.9992C54.159 19.7607 44.2377 9.83945 31.9992 9.83945C19.7607 9.83945 9.83945 19.7607 9.83945 31.9992Z" fill="#02A199"/>
<circle cx="34.8814" cy="38.0826" r="5.44" fill="#02A199"/>
<circle cx="3.84" cy="3.84" r="3.84" transform="matrix(1 0 0 -1 38.3984 49.9199)" fill="#02A199"/>
<path d="M73.056 19.236C73.056 17.0173 73.536 15.044 74.496 13.316C75.456 11.5667 76.7893 10.212 78.496 9.252C80.224 8.27067 82.176 7.78 84.352 7.78C87.0187 7.78 89.3013 8.484 91.2 9.892C93.0987 11.3 94.368 13.22 95.008 15.652H88.992C88.544 14.7133 87.904 13.9987 87.072 13.508C86.2613 13.0173 85.3333 12.772 84.288 12.772C82.6027 12.772 81.2373 13.3587 80.192 14.532C79.1467 15.7053 78.624 17.2733 78.624 19.236C78.624 21.1987 79.1467 22.7667 80.192 23.94C81.2373 25.1133 82.6027 25.7 84.288 25.7C85.3333 25.7 86.2613 25.4547 87.072 24.964C87.904 24.4733 88.544 23.7587 88.992 22.82H95.008C94.368 25.252 93.0987 27.172 91.2 28.58C89.3013 29.9667 87.0187 30.66 84.352 30.66C82.176 30.66 80.224 30.18 78.496 29.22C76.7893 28.2387 75.456 26.884 74.496 25.156C73.536 23.428 73.056 21.4547 73.056 19.236ZM103.831 26.276H110.999V30.5H98.359V8.036H103.831V26.276ZM124.233 30.724C122.121 30.724 120.18 30.2333 118.409 29.252C116.66 28.2707 115.262 26.9053 114.217 25.156C113.193 23.3853 112.681 21.4013 112.681 19.204C112.681 17.0067 113.193 15.0333 114.217 13.284C115.262 11.5347 116.66 10.1693 118.409 9.188C120.18 8.20667 122.121 7.716 124.233 7.716C126.345 7.716 128.276 8.20667 130.025 9.188C131.796 10.1693 133.182 11.5347 134.185 13.284C135.209 15.0333 135.721 17.0067 135.721 19.204C135.721 21.4013 135.209 23.3853 134.185 25.156C133.161 26.9053 131.774 28.2707 130.025 29.252C128.276 30.2333 126.345 30.724 124.233 30.724ZM124.233 25.732C126.025 25.732 127.454 25.1347 128.521 23.94C129.609 22.7453 130.153 21.1667 130.153 19.204C130.153 17.22 129.609 15.6413 128.521 14.468C127.454 13.2733 126.025 12.676 124.233 12.676C122.42 12.676 120.969 13.2627 119.881 14.436C118.814 15.6093 118.281 17.1987 118.281 19.204C118.281 21.188 118.814 22.7773 119.881 23.972C120.969 25.1453 122.42 25.732 124.233 25.732ZM150.221 30.5L145.549 22.02H144.237V30.5H138.765V8.036H147.949C149.72 8.036 151.224 8.34533 152.461 8.964C153.72 9.58267 154.659 10.436 155.277 11.524C155.896 12.5907 156.205 13.7853 156.205 15.108C156.205 16.6013 155.779 17.9347 154.925 19.108C154.093 20.2813 152.856 21.1133 151.213 21.604L156.397 30.5H150.221ZM144.237 18.148H147.629C148.632 18.148 149.379 17.9027 149.869 17.412C150.381 16.9213 150.637 16.228 150.637 15.332C150.637 14.4787 150.381 13.8067 149.869 13.316C149.379 12.8253 148.632 12.58 147.629 12.58H144.237V18.148ZM170.264 30.724C168.152 30.724 166.211 30.2333 164.44 29.252C162.691 28.2707 161.294 26.9053 160.248 25.156C159.224 23.3853 158.712 21.4013 158.712 19.204C158.712 17.0067 159.224 15.0333 160.248 13.284C161.294 11.5347 162.691 10.1693 164.44 9.188C166.211 8.20667 168.152 7.716 170.264 7.716C172.376 7.716 174.307 8.20667 176.056 9.188C177.827 10.1693 179.214 11.5347 180.216 13.284C181.24 15.0333 181.752 17.0067 181.752 19.204C181.752 21.4013 181.24 23.3853 180.216 25.156C179.192 26.9053 177.806 28.2707 176.056 29.252C174.307 30.2333 172.376 30.724 170.264 30.724ZM170.264 25.732C172.056 25.732 173.486 25.1347 174.552 23.94C175.64 22.7453 176.184 21.1667 176.184 19.204C176.184 17.22 175.64 15.6413 174.552 14.468C173.486 13.2733 172.056 12.676 170.264 12.676C168.451 12.676 167 13.2627 165.912 14.436C164.846 15.6093 164.312 17.1987 164.312 19.204C164.312 21.188 164.846 22.7773 165.912 23.972C167 25.1453 168.451 25.732 170.264 25.732ZM204.893 30.5H199.421L190.269 16.644V30.5H184.797V8.036H190.269L199.421 21.956V8.036H204.893V30.5ZM219.483 30.724C217.371 30.724 215.43 30.2333 213.659 29.252C211.91 28.2707 210.512 26.9053 209.467 25.156C208.443 23.3853 207.931 21.4013 207.931 19.204C207.931 17.0067 208.443 15.0333 209.467 13.284C210.512 11.5347 211.91 10.1693 213.659 9.188C215.43 8.20667 217.371 7.716 219.483 7.716C221.595 7.716 223.526 8.20667 225.275 9.188C227.046 10.1693 228.432 11.5347 229.435 13.284C230.459 15.0333 230.971 17.0067 230.971 19.204C230.971 21.4013 230.459 23.3853 229.435 25.156C228.411 26.9053 227.024 28.2707 225.275 29.252C223.526 30.2333 221.595 30.724 219.483 30.724ZM219.483 25.732C221.275 25.732 222.704 25.1347 223.771 23.94C224.859 22.7453 225.403 21.1667 225.403 19.204C225.403 17.22 224.859 15.6413 223.771 14.468C222.704 13.2733 221.275 12.676 219.483 12.676C217.67 12.676 216.219 13.2627 215.131 14.436C214.064 15.6093 213.531 17.1987 213.531 19.204C213.531 21.188 214.064 22.7773 215.131 23.972C216.219 25.1453 217.67 25.732 219.483 25.732ZM245.471 30.5L240.799 22.02H239.487V30.5H234.015V8.036H243.199C244.97 8.036 246.474 8.34533 247.711 8.964C248.97 9.58267 249.909 10.436 250.527 11.524C251.146 12.5907 251.455 13.7853 251.455 15.108C251.455 16.6013 251.029 17.9347 250.175 19.108C249.343 20.2813 248.106 21.1133 246.463 21.604L251.647 30.5H245.471ZM239.487 18.148H242.879C243.882 18.148 244.629 17.9027 245.119 17.412C245.631 16.9213 245.887 16.228 245.887 15.332C245.887 14.4787 245.631 13.8067 245.119 13.316C244.629 12.8253 243.882 12.58 242.879 12.58H239.487V18.148ZM269.8 30.724C268.157 30.724 266.685 30.4573 265.384 29.924C264.082 29.3907 263.037 28.6013 262.248 27.556C261.48 26.5107 261.074 25.252 261.032 23.78H266.856C266.941 24.612 267.229 25.252 267.72 25.7C268.21 26.1267 268.85 26.34 269.64 26.34C270.45 26.34 271.09 26.1587 271.56 25.796C272.029 25.412 272.264 24.8893 272.264 24.228C272.264 23.6733 272.072 23.2147 271.688 22.852C271.325 22.4893 270.866 22.1907 270.312 21.956C269.778 21.7213 269.01 21.4547 268.008 21.156C266.557 20.708 265.373 20.26 264.456 19.812C263.538 19.364 262.749 18.7027 262.088 17.828C261.426 16.9533 261.096 15.812 261.096 14.404C261.096 12.3133 261.853 10.6813 263.368 9.508C264.882 8.31333 266.856 7.716 269.288 7.716C271.762 7.716 273.757 8.31333 275.272 9.508C276.786 10.6813 277.597 12.324 277.704 14.436H271.784C271.741 13.7107 271.474 13.1453 270.984 12.74C270.493 12.3133 269.864 12.1 269.095 12.1C268.434 12.1 267.901 12.2813 267.496 12.644C267.09 12.9853 266.888 13.4867 266.888 14.148C266.888 14.8733 267.229 15.4387 267.911 15.844C268.594 16.2493 269.661 16.6867 271.112 17.156C272.562 17.6467 273.736 18.116 274.632 18.564C275.549 19.012 276.338 19.6627 277 20.516C277.661 21.3693 277.992 22.468 277.992 23.812C277.992 25.092 277.661 26.2547 277 27.3C276.36 28.3453 275.421 29.1773 274.184 29.796C272.946 30.4147 271.485 30.724 269.8 30.724ZM283.919 30.756C282.959 30.756 282.17 30.4787 281.551 29.924C280.954 29.348 280.655 28.644 280.655 27.812C280.655 26.9587 280.954 26.244 281.551 25.668C282.17 25.092 282.959 24.804 283.919 24.804C284.858 24.804 285.626 25.092 286.223 25.668C286.842 26.244 287.151 26.9587 287.151 27.812C287.151 28.644 286.842 29.348 286.223 29.924C285.626 30.4787 284.858 30.756 283.919 30.756ZM304.374 26.532H295.99L294.646 30.5H288.918L297.046 8.036H303.382L311.51 30.5H305.718L304.374 26.532ZM302.966 22.308L300.182 14.084L297.43 22.308H302.966ZM316.544 30.756C315.584 30.756 314.795 30.4787 314.176 29.924C313.579 29.348 313.28 28.644 313.28 27.812C313.28 26.9587 313.579 26.244 314.176 25.668C314.795 25.092 315.584 24.804 316.544 24.804C317.483 24.804 318.251 25.092 318.848 25.668C319.467 26.244 319.776 26.9587 319.776 27.812C319.776 28.644 319.467 29.348 318.848 29.924C318.251 30.4787 317.483 30.756 316.544 30.756Z" fill="white"/>
<path d="M82.582 56.264L80.874 54.416C80.454 54.5373 79.992 54.598 79.488 54.598C78.5827 54.598 77.7473 54.388 76.982 53.968C76.226 53.5387 75.624 52.946 75.176 52.19C74.7373 51.4247 74.518 50.566 74.518 49.614C74.518 48.662 74.7373 47.808 75.176 47.052C75.624 46.296 76.226 45.708 76.982 45.288C77.7473 44.8587 78.5827 44.644 79.488 44.644C80.4027 44.644 81.238 44.8587 81.994 45.288C82.7593 45.708 83.3613 46.296 83.8 47.052C84.2387 47.808 84.458 48.662 84.458 49.614C84.458 50.51 84.262 51.322 83.87 52.05C83.4873 52.7687 82.9553 53.3473 82.274 53.786L84.612 56.264H82.582ZM76.156 49.614C76.156 50.3327 76.296 50.9673 76.576 51.518C76.8653 52.0593 77.262 52.4793 77.766 52.778C78.27 53.0673 78.844 53.212 79.488 53.212C80.132 53.212 80.706 53.0673 81.21 52.778C81.714 52.4793 82.106 52.0593 82.386 51.518C82.6753 50.9673 82.82 50.3327 82.82 49.614C82.82 48.8953 82.6753 48.2653 82.386 47.724C82.106 47.1827 81.714 46.7673 81.21 46.478C80.706 46.1887 80.132 46.044 79.488 46.044C78.844 46.044 78.27 46.1887 77.766 46.478C77.262 46.7673 76.8653 47.1827 76.576 47.724C76.296 48.2653 76.156 48.8953 76.156 49.614ZM93.0555 46.786V54.5H91.4595V53.59C91.2075 53.9073 90.8762 54.1593 90.4655 54.346C90.0642 54.5233 89.6349 54.612 89.1775 54.612C88.5709 54.612 88.0249 54.486 87.5395 54.234C87.0635 53.982 86.6855 53.6087 86.4055 53.114C86.1349 52.6193 85.9995 52.022 85.9995 51.322V46.786H87.5815V51.084C87.5815 51.7747 87.7542 52.3067 88.0995 52.68C88.4449 53.044 88.9162 53.226 89.5135 53.226C90.1109 53.226 90.5822 53.044 90.9275 52.68C91.2822 52.3067 91.4595 51.7747 91.4595 51.084V46.786H93.0555ZM96.7573 46.786V54.5H95.1613V46.786H96.7573ZM97.4013 44.714L94.3073 46.24V45.064L97.4013 43.356V44.714ZM108.191 46.66C108.797 46.66 109.339 46.786 109.815 47.038C110.3 47.29 110.678 47.6633 110.949 48.158C111.229 48.6527 111.369 49.25 111.369 49.95V54.5H109.787V50.188C109.787 49.4973 109.614 48.97 109.269 48.606C108.923 48.2327 108.452 48.046 107.855 48.046C107.257 48.046 106.781 48.2327 106.427 48.606C106.081 48.97 105.909 49.4973 105.909 50.188V54.5H104.327V50.188C104.327 49.4973 104.154 48.97 103.809 48.606C103.463 48.2327 102.992 48.046 102.395 48.046C101.797 48.046 101.321 48.2327 100.967 48.606C100.621 48.97 100.449 49.4973 100.449 50.188V54.5H98.8527V46.786H100.449V47.668C100.71 47.3507 101.041 47.1033 101.443 46.926C101.844 46.7487 102.273 46.66 102.731 46.66C103.347 46.66 103.897 46.7907 104.383 47.052C104.868 47.3133 105.241 47.6913 105.503 48.186C105.736 47.7193 106.1 47.3507 106.595 47.08C107.089 46.8 107.621 46.66 108.191 46.66ZM114.212 45.764C113.922 45.764 113.68 45.666 113.484 45.47C113.288 45.274 113.19 45.0313 113.19 44.742C113.19 44.4527 113.288 44.21 113.484 44.014C113.68 43.818 113.922 43.72 114.212 43.72C114.492 43.72 114.73 43.818 114.926 44.014C115.122 44.21 115.22 44.4527 115.22 44.742C115.22 45.0313 115.122 45.274 114.926 45.47C114.73 45.666 114.492 45.764 114.212 45.764ZM114.996 46.786V54.5H113.4V46.786H114.996ZM116.559 50.636C116.559 49.8427 116.718 49.1473 117.035 48.55C117.362 47.9433 117.81 47.4767 118.379 47.15C118.948 46.8233 119.602 46.66 120.339 46.66C121.272 46.66 122.042 46.884 122.649 47.332C123.265 47.7707 123.68 48.4007 123.895 49.222H122.173C122.033 48.8393 121.809 48.5407 121.501 48.326C121.193 48.1113 120.806 48.004 120.339 48.004C119.686 48.004 119.163 48.2373 118.771 48.704C118.388 49.1613 118.197 49.8053 118.197 50.636C118.197 51.4667 118.388 52.1153 118.771 52.582C119.163 53.0487 119.686 53.282 120.339 53.282C121.263 53.282 121.874 52.876 122.173 52.064H123.895C123.671 52.848 123.251 53.4733 122.635 53.94C122.019 54.3973 121.254 54.626 120.339 54.626C119.602 54.626 118.948 54.4627 118.379 54.136C117.81 53.8 117.362 53.3333 117.035 52.736C116.718 52.1293 116.559 51.4293 116.559 50.636ZM124.954 50.608C124.954 49.8333 125.112 49.1473 125.43 48.55C125.756 47.9527 126.195 47.4907 126.746 47.164C127.306 46.828 127.922 46.66 128.594 46.66C129.2 46.66 129.728 46.7813 130.176 47.024C130.633 47.2573 130.997 47.5513 131.268 47.906V46.786H132.878V54.5H131.268V53.352C130.997 53.716 130.628 54.0193 130.162 54.262C129.695 54.5047 129.163 54.626 128.566 54.626C127.903 54.626 127.296 54.458 126.746 54.122C126.195 53.7767 125.756 53.3007 125.43 52.694C125.112 52.078 124.954 51.3827 124.954 50.608ZM131.268 50.636C131.268 50.104 131.156 49.642 130.932 49.25C130.717 48.858 130.432 48.5593 130.078 48.354C129.723 48.1487 129.34 48.046 128.93 48.046C128.519 48.046 128.136 48.1487 127.782 48.354C127.427 48.55 127.138 48.844 126.914 49.236C126.699 49.6187 126.592 50.076 126.592 50.608C126.592 51.14 126.699 51.6067 126.914 52.008C127.138 52.4093 127.427 52.7173 127.782 52.932C128.146 53.1373 128.528 53.24 128.93 53.24C129.34 53.24 129.723 53.1373 130.078 52.932C130.432 52.7267 130.717 52.428 130.932 52.036C131.156 51.6347 131.268 51.168 131.268 50.636ZM138.079 50.608C138.079 49.8333 138.237 49.1473 138.555 48.55C138.881 47.9527 139.32 47.4907 139.871 47.164C140.431 46.828 141.051 46.66 141.733 46.66C142.237 46.66 142.731 46.772 143.217 46.996C143.711 47.2107 144.103 47.5 144.393 47.864V44.14H146.003V54.5H144.393V53.338C144.131 53.7113 143.767 54.0193 143.301 54.262C142.843 54.5047 142.316 54.626 141.719 54.626C141.047 54.626 140.431 54.458 139.871 54.122C139.32 53.7767 138.881 53.3007 138.555 52.694C138.237 52.078 138.079 51.3827 138.079 50.608ZM144.393 50.636C144.393 50.104 144.281 49.642 144.057 49.25C143.842 48.858 143.557 48.5593 143.203 48.354C142.848 48.1487 142.465 48.046 142.055 48.046C141.644 48.046 141.261 48.1487 140.907 48.354C140.552 48.55 140.263 48.844 140.039 49.236C139.824 49.6187 139.717 50.076 139.717 50.608C139.717 51.14 139.824 51.6067 140.039 52.008C140.263 52.4093 140.552 52.7173 140.907 52.932C141.271 53.1373 141.653 53.24 142.055 53.24C142.465 53.24 142.848 53.1373 143.203 52.932C143.557 52.7267 143.842 52.428 144.057 52.036C144.281 51.6347 144.393 51.168 144.393 50.636ZM155.169 50.454C155.169 50.7433 155.15 51.0047 155.113 51.238H149.219C149.265 51.854 149.494 52.3487 149.905 52.722C150.315 53.0953 150.819 53.282 151.417 53.282C152.275 53.282 152.882 52.9227 153.237 52.204H154.959C154.725 52.9133 154.301 53.4967 153.685 53.954C153.078 54.402 152.322 54.626 151.417 54.626C150.679 54.626 150.017 54.4627 149.429 54.136C148.85 53.8 148.393 53.3333 148.057 52.736C147.73 52.1293 147.567 51.4293 147.567 50.636C147.567 49.8427 147.725 49.1473 148.043 48.55C148.369 47.9433 148.822 47.4767 149.401 47.15C149.989 46.8233 150.661 46.66 151.417 46.66C152.145 46.66 152.793 46.8187 153.363 47.136C153.932 47.4533 154.375 47.9013 154.693 48.48C155.01 49.0493 155.169 49.7073 155.169 50.454ZM153.503 49.95C153.493 49.362 153.283 48.8907 152.873 48.536C152.462 48.1813 151.953 48.004 151.347 48.004C150.796 48.004 150.325 48.1813 149.933 48.536C149.541 48.8813 149.307 49.3527 149.233 49.95H153.503ZM158.335 44.14V54.5H156.739V44.14H158.335ZM172.062 54.5H170.466L165.664 47.234V54.5H164.068V44.756H165.664L170.466 52.008V44.756H172.062V54.5ZM177.503 54.626C176.775 54.626 176.117 54.4627 175.529 54.136C174.941 53.8 174.479 53.3333 174.143 52.736C173.807 52.1293 173.639 51.4293 173.639 50.636C173.639 49.852 173.812 49.1567 174.157 48.55C174.503 47.9433 174.974 47.4767 175.571 47.15C176.169 46.8233 176.836 46.66 177.573 46.66C178.311 46.66 178.978 46.8233 179.575 47.15C180.173 47.4767 180.644 47.9433 180.989 48.55C181.335 49.1567 181.507 49.852 181.507 50.636C181.507 51.42 181.33 52.1153 180.975 52.722C180.621 53.3287 180.135 53.8 179.519 54.136C178.913 54.4627 178.241 54.626 177.503 54.626ZM177.503 53.24C177.914 53.24 178.297 53.142 178.651 52.946C179.015 52.75 179.309 52.456 179.533 52.064C179.757 51.672 179.869 51.196 179.869 50.636C179.869 50.076 179.762 49.6047 179.547 49.222C179.333 48.83 179.048 48.536 178.693 48.34C178.339 48.144 177.956 48.046 177.545 48.046C177.135 48.046 176.752 48.144 176.397 48.34C176.052 48.536 175.777 48.83 175.571 49.222C175.366 49.6047 175.263 50.076 175.263 50.636C175.263 51.4667 175.473 52.1107 175.893 52.568C176.323 53.016 176.859 53.24 177.503 53.24ZM184.681 47.906C184.914 47.514 185.222 47.2107 185.605 46.996C185.997 46.772 186.459 46.66 186.991 46.66V48.312H186.585C185.96 48.312 185.484 48.4707 185.157 48.788C184.84 49.1053 184.681 49.656 184.681 50.44V54.5H183.085V46.786H184.681V47.906ZM187.926 50.608C187.926 49.8333 188.085 49.1473 188.402 48.55C188.729 47.9527 189.168 47.4907 189.718 47.164C190.278 46.828 190.899 46.66 191.58 46.66C192.084 46.66 192.579 46.772 193.064 46.996C193.559 47.2107 193.951 47.5 194.24 47.864V44.14H195.85V54.5H194.24V53.338C193.979 53.7113 193.615 54.0193 193.148 54.262C192.691 54.5047 192.164 54.626 191.566 54.626C190.894 54.626 190.278 54.458 189.718 54.122C189.168 53.7767 188.729 53.3007 188.402 52.694C188.085 52.078 187.926 51.3827 187.926 50.608ZM194.24 50.636C194.24 50.104 194.128 49.642 193.904 49.25C193.69 48.858 193.405 48.5593 193.05 48.354C192.696 48.1487 192.313 48.046 191.902 48.046C191.492 48.046 191.109 48.1487 190.754 48.354C190.4 48.55 190.11 48.844 189.886 49.236C189.672 49.6187 189.564 50.076 189.564 50.608C189.564 51.14 189.672 51.6067 189.886 52.008C190.11 52.4093 190.4 52.7173 190.754 52.932C191.118 53.1373 191.501 53.24 191.902 53.24C192.313 53.24 192.696 53.1373 193.05 52.932C193.405 52.7267 193.69 52.428 193.904 52.036C194.128 51.6347 194.24 51.168 194.24 50.636ZM205.016 50.454C205.016 50.7433 204.998 51.0047 204.96 51.238H199.066C199.113 51.854 199.342 52.3487 199.752 52.722C200.163 53.0953 200.667 53.282 201.264 53.282C202.123 53.282 202.73 52.9227 203.084 52.204H204.806C204.573 52.9133 204.148 53.4967 203.532 53.954C202.926 54.402 202.17 54.626 201.264 54.626C200.527 54.626 199.864 54.4627 199.276 54.136C198.698 53.8 198.24 53.3333 197.904 52.736C197.578 52.1293 197.414 51.4293 197.414 50.636C197.414 49.8427 197.573 49.1473 197.89 48.55C198.217 47.9433 198.67 47.4767 199.248 47.15C199.836 46.8233 200.508 46.66 201.264 46.66C201.992 46.66 202.641 46.8187 203.21 47.136C203.78 47.4533 204.223 47.9013 204.54 48.48C204.858 49.0493 205.016 49.7073 205.016 50.454ZM203.35 49.95C203.341 49.362 203.131 48.8907 202.72 48.536C202.31 48.1813 201.801 48.004 201.194 48.004C200.644 48.004 200.172 48.1813 199.78 48.536C199.388 48.8813 199.155 49.3527 199.08 49.95H203.35ZM209.387 54.626C208.78 54.626 208.234 54.5187 207.749 54.304C207.273 54.08 206.895 53.7813 206.615 53.408C206.335 53.0253 206.186 52.6007 206.167 52.134H207.819C207.847 52.4607 208.001 52.736 208.281 52.96C208.57 53.1747 208.93 53.282 209.359 53.282C209.807 53.282 210.152 53.198 210.395 53.03C210.647 52.8527 210.773 52.6287 210.773 52.358C210.773 52.0687 210.633 51.854 210.353 51.714C210.082 51.574 209.648 51.42 209.051 51.252C208.472 51.0933 208.001 50.9393 207.637 50.79C207.273 50.6407 206.956 50.412 206.685 50.104C206.424 49.796 206.293 49.39 206.293 48.886C206.293 48.4753 206.414 48.102 206.657 47.766C206.9 47.4207 207.245 47.15 207.693 46.954C208.15 46.758 208.673 46.66 209.261 46.66C210.138 46.66 210.843 46.884 211.375 47.332C211.916 47.7707 212.206 48.3727 212.243 49.138H210.647C210.619 48.7927 210.479 48.5173 210.227 48.312C209.975 48.1067 209.634 48.004 209.205 48.004C208.785 48.004 208.463 48.0833 208.239 48.242C208.015 48.4007 207.903 48.6107 207.903 48.872C207.903 49.0773 207.978 49.25 208.127 49.39C208.276 49.53 208.458 49.642 208.673 49.726C208.888 49.8007 209.205 49.8987 209.625 50.02C210.185 50.1693 210.642 50.3233 210.997 50.482C211.361 50.6313 211.674 50.8553 211.935 51.154C212.196 51.4527 212.332 51.8493 212.341 52.344C212.341 52.7827 212.22 53.1747 211.977 53.52C211.734 53.8653 211.389 54.136 210.941 54.332C210.502 54.528 209.984 54.626 209.387 54.626ZM215.928 48.088V52.358C215.928 52.6473 215.993 52.8573 216.124 52.988C216.264 53.1093 216.497 53.17 216.824 53.17H217.804V54.5H216.544C215.825 54.5 215.274 54.332 214.892 53.996C214.509 53.66 214.318 53.114 214.318 52.358V48.088H213.408V46.786H214.318V44.868H215.928V46.786H217.804V48.088H215.928ZM226.345 50.454C226.345 50.7433 226.326 51.0047 226.289 51.238H220.395C220.441 51.854 220.67 52.3487 221.081 52.722C221.491 53.0953 221.995 53.282 222.593 53.282C223.451 53.282 224.058 52.9227 224.413 52.204H226.135C225.901 52.9133 225.477 53.4967 224.861 53.954C224.254 54.402 223.498 54.626 222.593 54.626C221.855 54.626 221.193 54.4627 220.605 54.136C220.026 53.8 219.569 53.3333 219.233 52.736C218.906 52.1293 218.743 51.4293 218.743 50.636C218.743 49.8427 218.901 49.1473 219.219 48.55C219.545 47.9433 219.998 47.4767 220.577 47.15C221.165 46.8233 221.837 46.66 222.593 46.66C223.321 46.66 223.969 46.8187 224.539 47.136C225.108 47.4533 225.551 47.9013 225.869 48.48C226.186 49.0493 226.345 49.7073 226.345 50.454ZM224.679 49.95C224.669 49.362 224.459 48.8907 224.049 48.536C223.638 48.1813 223.129 48.004 222.523 48.004C221.972 48.004 221.501 48.1813 221.109 48.536C220.717 48.8813 220.483 49.3527 220.409 49.95H224.679Z" fill="white"/>
</svg>
